<?xml version="1.0" encoding="UTF-8"?>
<!--Generator: Apple Native CoreSVG 341-->
<!DOCTYPE svg
PUBLIC "-//W3C//DTD SVG 1.1//EN"
       "http://www.w3.org/Graphics/SVG/1.1/DTD/svg11.dtd">
<svg version="1.1" xmlns="http://www.w3.org/2000/svg" xmlns:xlink="http://www.w3.org/1999/xlink" viewBox="0 0 127.637 127.832">
 <g>
  <rect height="127.832" opacity="0" width="127.637" x="0" y="0"/>
  <path d="M71.6797 119.824L71.6797 7.91016C71.6797 3.71094 68.1641 0 63.8672 0C59.5703 0 55.957 3.71094 55.957 7.91016L55.957 119.824C55.957 124.023 59.5703 127.734 63.8672 127.734C68.1641 127.734 71.6797 124.023 71.6797 119.824ZM7.91016 71.7773L119.824 71.7773C124.023 71.7773 127.637 68.1641 127.637 63.8672C127.637 59.5703 124.023 55.957 119.824 55.957L7.91016 55.957C3.61328 55.957 0 59.5703 0 63.8672C0 68.1641 3.61328 71.7773 7.91016 71.7773Z" fill="black"/>
 </g>
</svg>
