<?xml version="1.0" encoding="UTF-8"?>
<!--Generator: Apple Native CoreSVG 341-->
<!DOCTYPE svg
PUBLIC "-//W3C//DTD SVG 1.1//EN"
       "http://www.w3.org/Graphics/SVG/1.1/DTD/svg11.dtd">
<svg version="1.1" xmlns="http://www.w3.org/2000/svg" xmlns:xlink="http://www.w3.org/1999/xlink" viewBox="0 0 229.102 229.004">
 <g>
  <rect height="229.004" opacity="0" width="229.102" x="0" y="0"/>
  <path d="M68.1641 229.004L160.938 229.004C183.105 229.004 200.293 222.754 211.523 211.523C223.047 200.098 229.102 182.91 229.102 160.84L229.102 68.1641C229.102 46.0938 223.145 29.0039 211.523 17.4805C200.195 6.05469 183.105 0 160.938 0L68.1641 0C45.9961 0 28.8086 6.25 17.5781 17.4805C6.05469 28.9062 0 46.0938 0 68.1641L0 160.84C0 182.91 5.95703 200 17.5781 211.523C28.9062 222.852 45.9961 229.004 68.1641 229.004ZM68.1641 211.719C51.5625 211.719 38.7695 207.227 30.2734 198.828C21.6797 190.332 17.2852 177.539 17.2852 160.84L17.2852 68.1641C17.2852 51.4648 21.6797 38.6719 30.2734 30.1758C38.6719 21.875 51.5625 17.2852 68.1641 17.2852L160.938 17.2852C177.637 17.2852 190.332 21.7773 198.828 30.1758C207.422 38.6719 211.816 51.4648 211.816 68.1641L211.816 160.84C211.816 177.539 207.422 190.332 198.828 198.828C190.43 207.129 177.637 211.719 160.938 211.719Z" fill="#072097"/>
  <path d="M123.633 162.793L123.633 65.8203C123.633 60.3516 119.824 56.543 114.453 56.543C109.277 56.543 105.664 60.3516 105.664 65.8203L105.664 162.793C105.664 168.164 109.277 171.973 114.453 171.973C119.824 171.973 123.633 168.262 123.633 162.793ZM66.1133 123.242L163.184 123.242C168.555 123.242 172.266 119.629 172.266 114.453C172.266 108.984 168.555 105.273 163.184 105.273L66.1133 105.273C60.6445 105.273 56.9336 108.984 56.9336 114.453C56.9336 119.629 60.7422 123.242 66.1133 123.242Z" fill="#072097"/>
 </g>
</svg>
